<mxfile host="Electron" agent="Mozilla/5.0 (Windows NT 10.0; Win64; x64) AppleWebKit/537.36 (KHTML, like Gecko) draw.io/24.7.17 Chrome/128.0.6613.36 Electron/32.0.1 Safari/537.36" version="24.7.17">
  <diagram name="Page-1" id="QAR3K6IzjgfG4BG7Y-j2">
    <mxGraphModel dx="2074" dy="1230" grid="1" gridSize="10" guides="1" tooltips="1" connect="1" arrows="1" fold="1" page="1" pageScale="1" pageWidth="850" pageHeight="1100" math="0" shadow="0">
      <root>
        <mxCell id="0" />
        <mxCell id="1" parent="0" />
        <mxCell id="v7Uq4myoskQ9KkUIkoRC-2" value="Comapny Network" style="rounded=1;whiteSpace=wrap;html=1;fillColor=none;verticalAlign=top;" vertex="1" parent="1">
          <mxGeometry x="450" y="100" width="160" height="150" as="geometry" />
        </mxCell>
        <mxCell id="v7Uq4myoskQ9KkUIkoRC-1" value="User" style="shape=umlActor;verticalLabelPosition=bottom;verticalAlign=top;html=1;outlineConnect=0;" vertex="1" parent="1">
          <mxGeometry x="545" y="144" width="30" height="60" as="geometry" />
        </mxCell>
        <mxCell id="v7Uq4myoskQ9KkUIkoRC-3" value="Internet" style="rounded=1;whiteSpace=wrap;html=1;fillColor=none;verticalAlign=top;" vertex="1" parent="1">
          <mxGeometry x="210" y="100" width="120" height="150" as="geometry" />
        </mxCell>
        <mxCell id="v7Uq4myoskQ9KkUIkoRC-4" value="" style="image;points=[];aspect=fixed;html=1;align=center;shadow=0;dashed=0;image=img/lib/allied_telesis/computer_and_terminals/Server_Desktop.svg;" vertex="1" parent="1">
          <mxGeometry x="250" y="150" width="42.599999999999994" height="54" as="geometry" />
        </mxCell>
        <mxCell id="v7Uq4myoskQ9KkUIkoRC-5" value="" style="image;aspect=fixed;perimeter=ellipsePerimeter;html=1;align=center;shadow=0;dashed=0;spacingTop=3;image=img/lib/active_directory/laptop_client.svg;" vertex="1" parent="1">
          <mxGeometry x="475" y="154" width="45" height="50" as="geometry" />
        </mxCell>
        <mxCell id="v7Uq4myoskQ9KkUIkoRC-6" value="Download Virus" style="edgeStyle=orthogonalEdgeStyle;rounded=0;orthogonalLoop=1;jettySize=auto;html=1;entryX=0;entryY=0.5;entryDx=0;entryDy=0;" edge="1" parent="1" source="v7Uq4myoskQ9KkUIkoRC-4" target="v7Uq4myoskQ9KkUIkoRC-5">
          <mxGeometry relative="1" as="geometry">
            <mxPoint x="380" y="80" as="targetPoint" />
          </mxGeometry>
        </mxCell>
        <mxCell id="v7Uq4myoskQ9KkUIkoRC-8" value="Comapny Network" style="rounded=1;whiteSpace=wrap;html=1;fillColor=none;verticalAlign=top;" vertex="1" parent="1">
          <mxGeometry x="450" y="380" width="160" height="150" as="geometry" />
        </mxCell>
        <mxCell id="v7Uq4myoskQ9KkUIkoRC-9" value="User" style="shape=umlActor;verticalLabelPosition=bottom;verticalAlign=top;html=1;outlineConnect=0;" vertex="1" parent="1">
          <mxGeometry x="548" y="424" width="30" height="60" as="geometry" />
        </mxCell>
        <mxCell id="v7Uq4myoskQ9KkUIkoRC-10" value="Internet" style="rounded=1;whiteSpace=wrap;html=1;fillColor=none;verticalAlign=top;" vertex="1" parent="1">
          <mxGeometry x="210" y="380" width="120" height="150" as="geometry" />
        </mxCell>
        <mxCell id="v7Uq4myoskQ9KkUIkoRC-11" value="" style="image;points=[];aspect=fixed;html=1;align=center;shadow=0;dashed=0;image=img/lib/allied_telesis/computer_and_terminals/Server_Desktop.svg;" vertex="1" parent="1">
          <mxGeometry x="250" y="434" width="42.599999999999994" height="54" as="geometry" />
        </mxCell>
        <mxCell id="v7Uq4myoskQ9KkUIkoRC-12" value="Infected Client" style="image;aspect=fixed;perimeter=ellipsePerimeter;html=1;align=center;shadow=0;dashed=0;spacingTop=3;image=img/lib/active_directory/laptop_client.svg;" vertex="1" parent="1">
          <mxGeometry x="478" y="434" width="45" height="50" as="geometry" />
        </mxCell>
        <mxCell id="v7Uq4myoskQ9KkUIkoRC-15" style="edgeStyle=orthogonalEdgeStyle;rounded=0;orthogonalLoop=1;jettySize=auto;html=1;entryX=0.939;entryY=0.463;entryDx=0;entryDy=0;entryPerimeter=0;" edge="1" parent="1" source="v7Uq4myoskQ9KkUIkoRC-12" target="v7Uq4myoskQ9KkUIkoRC-11">
          <mxGeometry relative="1" as="geometry" />
        </mxCell>
        <mxCell id="v7Uq4myoskQ9KkUIkoRC-16" value="Send Information" style="edgeLabel;html=1;align=center;verticalAlign=middle;resizable=0;points=[];" vertex="1" connectable="0" parent="v7Uq4myoskQ9KkUIkoRC-15">
          <mxGeometry x="-0.0111" relative="1" as="geometry">
            <mxPoint as="offset" />
          </mxGeometry>
        </mxCell>
      </root>
    </mxGraphModel>
  </diagram>
</mxfile>
